<svg class="svg-icon" style="width: 1em; height: 1em;vertical-align: middle;fill: currentColor;overflow: hidden;" viewBox="0 0 1024 1024" version="1.1" xmlns="http://www.w3.org/2000/svg"><path d="M402.285714 786.285714l0-402.285714q0-8-5.142857-13.142857t-13.142857-5.142857l-36.571429 0q-8 0-13.142857 5.142857t-5.142857 13.142857l0 402.285714q0 8 5.142857 13.142857t13.142857 5.142857l36.571429 0q8 0 13.142857-5.142857t5.142857-13.142857zm146.285714 0l0-402.285714q0-8-5.142857-13.142857t-13.142857-5.142857l-36.571429 0q-8 0-13.142857 5.142857t-5.142857 13.142857l0 402.285714q0 8 5.142857 13.142857t13.142857 5.142857l36.571429 0q8 0 13.142857-5.142857t5.142857-13.142857zm146.285714 0l0-402.285714q0-8-5.142857-13.142857t-13.142857-5.142857l-36.571429 0q-8 0-13.142857 5.142857t-5.142857 13.142857l0 402.285714q0 8 5.142857 13.142857t13.142857 5.142857l36.571429 0q8 0 13.142857-5.142857t5.142857-13.142857zm-310.857143-566.857143l256 0-27.428571-66.857143q-4-5.142857-9.714286-6.285714l-181.142857 0q-5.714286 1.142857-9.714286 6.285714zm530.285714 18.285714l0 36.571429q0 8-5.142857 13.142857t-13.142857 5.142857l-54.857143 0 0 541.714286q0 47.428571-26.857143 82t-64.571429 34.571429l-475.428571 0q-37.714286 0-64.571429-33.428571t-26.857143-80.857143l0-544-54.857143 0q-8 0-13.142857-5.142857t-5.142857-13.142857l0-36.571429q0-8 5.142857-13.142857t13.142857-5.142857l176.571429 0 40-95.428571q8.571429-21.142857 30.857143-36t45.142857-14.857143l182.857143 0q22.857143 0 45.142857 14.857143t30.857143 36l40 95.428571 176.571429 0q8 0 13.142857 5.142857t5.142857 13.142857z"  /></svg>